<?xml version="1.0" standalone="no"?>
<!DOCTYPE svg PUBLIC "-//W3C//DTD SVG 20010904//EN"
 "http://www.w3.org/TR/2001/REC-SVG-20010904/DTD/svg10.dtd">
<svg version="1.0" xmlns="http://www.w3.org/2000/svg"
 width="192.000000pt" height="192.000000pt" viewBox="0 0 192.000000 192.000000"
 preserveAspectRatio="xMidYMid meet">
<metadata>
Created by potrace 1.16, written by Peter Selinger 2001-2019
</metadata>
<g transform="translate(0.000000,192.000000) scale(0.100000,-0.100000)"
fill="#000000" stroke="none">
<path d="M1267 1593 c-14 -14 -6 -23 32 -34 38 -11 39 -12 29 -43 -6 -17 -12
-32 -13 -34 -1 -1 -24 5 -51 13 -73 22 -80 20 -92 -25 -8 -33 -7 -42 6 -49 18
-10 21 4 -69 -290 l-53 -173 27 -24 c16 -13 35 -24 44 -24 12 0 14 -7 9 -31
-5 -25 -2 -32 14 -36 25 -7 25 0 -5 -100 -24 -79 -26 -111 -4 -98 5 3 20 44
34 90 24 76 29 85 50 85 18 0 26 7 31 25 3 14 7 25 9 25 1 0 16 -5 33 -11 51
-17 67 0 101 104 16 50 27 95 25 99 -13 21 -26 1 -50 -77 -14 -46 -31 -89 -38
-94 -11 -9 -220 49 -237 66 -7 7 114 430 127 442 4 4 254 -69 254 -74 0 -1 -9
-28 -20 -60 -23 -67 -26 -99 -8 -93 7 3 22 36 34 74 15 53 25 69 39 69 12 0
22 13 32 39 7 22 11 42 7 45 -3 3 -29 13 -57 22 -49 15 -52 17 -50 48 0 18 3
34 5 36 2 3 21 -1 41 -7 38 -12 58 -5 40 13 -5 5 -59 25 -119 43 -60 18 -118
36 -130 40 -11 3 -23 3 -27 -1z"/>
<path d="M636 1541 c-65 -27 -123 -54 -129 -60 -16 -16 17 -25 42 -12 29 16
37 14 50 -15 15 -33 11 -38 -46 -59 -26 -10 -52 -21 -56 -25 -4 -4 -1 -26 8
-48 13 -31 22 -41 36 -39 17 2 33 -30 104 -207 46 -114 90 -215 97 -223 12
-15 50 -14 89 2 12 4 18 -1 23 -20 6 -22 11 -26 30 -21 21 5 26 -2 58 -76 19
-45 40 -84 46 -86 19 -6 14 17 -19 101 -30 74 -31 79 -14 91 13 9 16 20 12 38
-6 22 -2 28 23 38 54 22 56 41 14 146 -21 53 -43 94 -51 94 -19 0 -16 -16 21
-105 21 -50 31 -84 25 -91 -5 -6 -59 -30 -120 -54 -90 -36 -112 -41 -119 -30
-15 24 -173 420 -169 424 5 3 238 96 242 96 2 0 16 -31 31 -70 15 -38 32 -70
36 -70 20 0 18 21 -7 84 -22 55 -24 69 -13 76 11 7 11 16 1 49 -14 47 -21 49
-92 21 -28 -12 -52 -19 -53 -18 -5 8 -26 59 -26 63 0 2 16 9 35 15 33 11 50
40 23 40 -7 -1 -66 -23 -132 -49z"/>
<path d="M725 1319 c-38 -16 -73 -33 -77 -37 -11 -11 132 -362 147 -362 12 0
155 56 162 64 5 5 -127 337 -140 354 -12 15 -9 16 -92 -19z m134 -169 l57
-145 -49 -22 c-27 -13 -53 -23 -57 -23 -4 0 -35 68 -68 151 l-61 150 42 18
c59 25 72 29 75 22 1 -3 29 -71 61 -151z"/>
<path d="M1247 1343 c-13 -22 -107 -347 -104 -357 5 -11 164 -62 171 -55 11
12 114 365 108 370 -9 9 -139 49 -157 49 -8 0 -16 -3 -18 -7z m111 -55 l30
-13 -46 -150 c-25 -82 -47 -152 -48 -153 -5 -7 -114 29 -114 36 0 5 6 28 14
53 8 24 29 91 46 148 31 103 32 103 60 98 15 -4 41 -12 58 -19z"/>
<path d="M165 1021 c-119 -55 -141 -184 -45 -265 41 -34 123 -37 164 -5 36 28
35 54 -1 43 -59 -17 -102 -10 -136 24 -82 82 1 199 107 151 20 -9 29 -9 41 1
24 20 17 40 -20 56 -44 18 -61 18 -110 -5z"/>
<path d="M435 1021 c-92 -42 -129 -133 -89 -217 37 -77 146 -99 221 -45 40 29
73 90 73 134 -1 49 -36 103 -82 126 -54 26 -71 26 -123 2z m108 -71 c57 -50
54 -125 -5 -156 -62 -32 -143 14 -155 89 -5 31 -1 40 25 67 41 41 89 41 135 0z"/>
<path d="M1631 1006 c-8 -9 -11 -58 -9 -151 l3 -138 40 -2 c91 -4 162 33 191
102 29 67 6 150 -50 184 -39 24 -157 27 -175 5z m124 -50 c66 -28 84 -108 36
-157 -32 -31 -86 -40 -109 -17 -13 13 -17 169 -5 181 10 11 41 8 78 -7z"/>
</g>
</svg>
